<svg height="200px" width="200px" version="1.1" id="Layer_1" xmlns="http://www.w3.org/2000/svg" xmlns:xlink="http://www.w3.org/1999/xlink" viewBox="0 0 512 512" xml:space="preserve" fill="#FFFFFF"><g id="SVGRepo_bgCarrier" stroke-width="0"></g><g id="SVGRepo_tracerCarrier" stroke-linecap="round" stroke-linejoin="round"></g><g id="SVGRepo_iconCarrier"> <path style="fill:#FFFFFF;" d="M222.256,414.827H8.854c-4.661,0-8.44-3.779-8.44-8.44s3.779-8.44,8.44-8.44h213.403 c4.661,0,8.44,3.779,8.44,8.44S226.917,414.827,222.256,414.827z"></path> <path style="fill:#FFFFFFD9510D;" d="M344.074,318.53H8.854c-4.661,0-8.44-3.779-8.44-8.44s3.779-8.44,8.44-8.44h335.219 c4.661,0,8.44,3.779,8.44,8.44C352.514,314.752,348.735,318.53,344.074,318.53z"></path> <path style="fill:#FFFFFF763794;" d="M240.232,222.234H8.854c-4.661,0-8.44-3.779-8.44-8.44s3.779-8.44,8.44-8.44h231.378 c4.661,0,8.44,3.779,8.44,8.44S244.892,222.234,240.232,222.234z"></path> <path style="fill:#FFFFFF0DAACE;" d="M391.632,125.936H8.854c-4.661,0-8.44-3.779-8.44-8.44c0-4.661,3.779-8.44,8.44-8.44h382.778 c4.661,0,8.44,3.779,8.44,8.44C400.071,122.159,396.293,125.936,391.632,125.936z"></path> <path style="fill:#FFFFFF808080;" d="M503.146,512H9.151c-4.661,0-8.44-3.779-8.44-8.44V8.44C0.711,3.779,4.49,0,9.151,0 s8.44,3.779,8.44,8.44v486.681h485.556c4.661,0,8.44,3.779,8.44,8.44S507.807,512,503.146,512z"></path> <path style="fill:#FFFFFF3FC8F2;" d="M420.133,79.317c-19.944,0-36.171,16.226-36.171,36.172s16.226,36.172,36.171,36.172 c19.946,0,36.172-16.226,36.172-36.172S440.078,79.317,420.133,79.317z"></path> <path style="fill:#FFFFFF0DAACE;" d="M420.133,79.317c-3.928,0-7.708,0.638-11.253,1.802c14.451,4.743,24.918,18.353,24.918,34.37 s-10.467,29.627-24.918,34.37c3.545,1.164,7.324,1.802,11.253,1.802c19.946,0,36.172-16.226,36.172-36.172 S440.078,79.317,420.133,79.317z"></path> <path style="fill:#FFFFFF894BA2;" d="M268.734,175.615c-19.944,0-36.171,16.226-36.171,36.171s16.226,36.172,36.171,36.172 c19.945,0,36.172-16.226,36.172-36.172S288.679,175.615,268.734,175.615z"></path> <path style="fill:#FFFFFF763794;" d="M268.734,175.615c-3.928,0-7.708,0.638-11.253,1.802c14.451,4.743,24.918,18.353,24.918,34.37 s-10.468,29.627-24.918,34.37c3.545,1.164,7.324,1.802,11.253,1.802c19.945,0,36.172-16.226,36.172-36.172 S288.679,175.615,268.734,175.615z"></path> <path style="fill:#FFFFFFFDB56;" d="M250.758,368.208c-19.944,0-36.171,16.226-36.171,36.172c0,19.945,16.226,36.172,36.171,36.172 c19.945,0,36.172-16.227,36.172-36.172C286.929,384.434,270.703,368.208,250.758,368.208z"></path> <path style="fill:#FFFFFF;" d="M250.758,368.208c-3.311,0-6.515,0.456-9.565,1.293c15.317,4.206,26.606,18.244,26.606,34.878 c0,16.634-11.29,30.673-26.606,34.878c3.048,0.837,6.253,1.293,9.565,1.293c19.945,0,36.172-16.226,36.172-36.172 C286.929,384.434,270.703,368.208,250.758,368.208z"></path> <path style="fill:#FFFFFF77935;" d="M372.575,271.911c-19.944,0-36.171,16.226-36.171,36.172c0,19.945,16.227,36.172,36.171,36.172 c19.945,0,36.172-16.226,36.172-36.172C408.747,288.138,392.521,271.911,372.575,271.911z"></path> <path style="fill:#FFFFFFD9510D;" d="M372.575,271.911c-3.515,0-6.911,0.513-10.127,1.454c15.029,4.392,26.043,18.289,26.043,34.718 c0,16.429-11.014,30.326-26.043,34.718c3.216,0.94,6.612,1.454,10.127,1.454c19.945,0,36.172-16.226,36.172-36.172 C408.747,288.138,392.521,271.911,372.575,271.911z"></path> </g></svg>